<svg width="30" height="30" viewBox="0 0 30 30" fill="none" xmlns="http://www.w3.org/2000/svg">
<path d="M15 11.4944C13.6824 11.4944 9.44166 19.1837 10.0882 20.4819C10.7347 21.7802 19.2723 21.766 19.9118 20.4819C20.5512 19.1979 16.3195 11.495 15 11.4944Z" fill="white"/>
<path fill-rule="evenodd" clip-rule="evenodd" d="M0.200775 27.0813C-1.74783 23.1686 11.0319 0 15 0C18.972 0 31.7304 23.2137 29.8031 27.0813C27.8757 30.9489 2.14938 30.994 0.200775 27.0813ZM5.3066 23.6862C6.58354 26.2498 23.439 26.2214 24.7018 23.6862C25.9645 21.1504 17.6048 5.94186 15.0039 5.94186C12.4029 5.94186 4.02966 21.1227 5.3066 23.6862Z" fill="white"/>
</svg>
